<svg xmlns="http://www.w3.org/2000/svg" width="64" height="64" viewBox="0 0 64 64" aria-hidden="true" role="img">
  <defs>
    <linearGradient id="g" x1="0" x2="1" y1="0" y2="1">
      <stop offset="0%" stop-color="#6E00FF"/>
      <stop offset="100%" stop-color="#B517FF"/>
    </linearGradient>
    <filter id="s" x="-50%" y="-50%" width="200%" height="200%">
      <feGaussianBlur stdDeviation="2" result="blur"/>
      <feMerge>
        <feMergeNode in="blur"/>
        <feMergeNode in="SourceGraphic"/>
      </feMerge>
    </filter>
  </defs>
  <rect width="64" height="64" rx="12" ry="12" fill="#0B0B0F"/>
  <path filter="url(#s)" fill="url(#g)" d="M32 49c-1 0-2-.3-2.8-1L16 36.2C11.2 31.9 11 24.8 15 20.3c3.8-4.2 10.5-4.5 14.7-.7l2.3 2.1 2.3-2.1c4.2-3.8 10.9-3.5 14.7.7 4 4.5 3.8 11.6-1 15.9L34.8 48c-.8.7-1.8 1-2.8 1z"/>
</svg>
